<?xml version="1.0" encoding="UTF-8"?>
<svg id="Capa_2" data-name="Capa 2" xmlns="http://www.w3.org/2000/svg" viewBox="0 0 29.97 29.94">
  <defs>
    <style>
      .cls-1 {
        fill: #fff;
      }
    </style>
  </defs>
  <g id="Capa_1-2" data-name="Capa 1">
    <path class="cls-1" d="m29.91,15.04c-.01-.24,0-.47.06-.7-.01-.16-.11-.32-.01-.48,0-.07.01-.13,0-.2-.19-2.06-.76-4-1.74-5.83-.76-1.42-1.77-2.66-2.9-3.8-.15-.1-.2-.3-.39-.36h0c-.08-.09-.16-.17-.26-.22-.57-.43-1.13-.87-1.74-1.25-1.43-.88-2.94-1.52-4.59-1.86-.07.05-.15,0-.26.04.07-.03.12-.01.14-.06-.15-.05-.3-.16-.46-.02-.28-.15-.59-.12-.89-.16-.8,0-1.6-.03-2.39-.1-.07,0-.15,0-.22,0-.14-.03-.28.07-.42-.01-.06,0-.11-.01-.17,0-2.09.18-4.04.81-5.9,1.77-.09.02-.16.07-.22.12h0c-.4.18-.76.43-1.11.7-.09.02-.16.09-.21.17-.32.28-.65.56-1.01.79-.09.06-.18.12-.25.2-.09.08-.18.16-.27.24-.23.24-.53.42-.71.71-.24.18-.38.45-.61.63-.29.42-.65.8-.89,1.26h0c-.54.76-.98,1.58-1.32,2.45-.04.13-.09.25-.13.38-.39,1.05-.74,2.11-.85,3.24-.02.05-.03.1-.02.15.04.15,0,.3,0,.45-.02.1.06.2,0,.3.02-.05.02-.1-.01-.15-.03-.01-.06-.01-.08.01-.01.01-.01.03,0,.04-.06.54-.09,1.07-.07,1.61,0,.03,0,.07,0,.1.04.03.07.02.1-.02.04-.43.03-.86.08-1.29-.05.53-.03,1.07-.11,1.59,0,.06,0,.12,0,.17-.02.16.07.33-.02.49.05,1.11.28,2.18.59,3.23.5,1.66,1.3,3.17,2.3,4.58.06.13.17.24.26.35.19.32.47.55.71.83.23.2.36.5.64.65.05.04.11.07.16.12,1.49,1.42,3.2,2.47,5.13,3.17.97.35,1.96.65,3,.73.12.05.24.04.36.03.79,0,1.58.07,2.37.1.12.01.24.04.36,0,.85,0,1.67-.16,2.49-.34,1.29-.28,2.5-.78,3.68-1.36.33-.18.69-.31.98-.57.33-.12.55-.39.84-.57h0c.24-.07.34-.32.57-.4.06-.03.09-.08.11-.14.09-.17.23-.28.39-.35.06-.04.13-.06.18-.13.05-.01.06-.06.08-.1.11-.19.26-.35.47-.44.2-.17.38-.35.52-.56.39-.5.79-.99,1.15-1.52,1.16-1.68,1.95-3.53,2.32-5.54-.04-.07-.01-.14-.02-.22,0-.03,0-.05.04-.06-.05.04-.03.07,0,.1.08-.17.09-.35.09-.53.01-.72.12-1.43.09-2.14Zm-7.9,7.64c-.65.99-1.51,1.69-2.68,1.98-.38.09-.76.14-1.14.21-.08.08-.16.04-.25.01-.52-.02-1.05,0-1.57-.11-.94-.18-1.76-.63-2.53-1.17-.15-.1-.34-.15-.43-.33-.15-.18-.32-.33-.53-.43-.02-.02-.04-.03-.06-.05-.1-.12-.19-.23-.33-.3-.04-.04-.08-.08-.13-.12-.35-.34-.68-.69-.98-1.07-1.06-1.22-1.86-2.6-2.49-4.08-.62-1.45-1.03-2.96-1.11-4.54,0-.04-.02-.09-.03-.13-.08-.13-.01-.28-.03-.41.06-.57-.03-1.16.18-1.71.27-1.06.7-2.05,1.27-2.98.06-.09.13-.18.19-.27.3-.3.52-.66.86-.93l.06-.04c.18-.09.36-.18.5-.33,1.24-.79,2.54-1.03,3.94-.47.64.25.81.53.77,1.17.02.17-.04.32-.11.46-.27,1.03-.54,2.05-.8,3.08-.06.24-.17.46-.17.71-.07.07.01.19-.08.26-.14.3-.24.61-.49.87-.28.29-.62.21-.93.17-.13-.02-.27-.11-.42-.15-.52-.14-.52-.14-.56.45.03.13.03.27-.02.4-.02.94.31,1.78.71,2.6.78,1.59,1.82,3.01,3.04,4.29.09.09.26.41.32-.03-.04-.17.03-.31.11-.45.25-.59.57-1.14,1.13-1.51.53-.34.75-.34,1.12.18.47.64.97,1.27,1.48,1.87.75.88,1.48,1.76,2.17,2.69.07.08.05.16,0,.24Z"/>
  </g>
</svg>