<?xml version="1.0" encoding="UTF-8"?>
<svg id="Capa_1" data-name="Capa 1" xmlns="http://www.w3.org/2000/svg" xmlns:xlink="http://www.w3.org/1999/xlink" viewBox="0 0 139.27 138.8">
  <defs>
    <style>
      .cls-1 {
        fill: url(#Degradado_sin_nombre_10);
      }
    </style>
    <linearGradient id="Degradado_sin_nombre_10" data-name="Degradado sin nombre 10" x1="163.73" y1="69.4" x2="-66.6" y2="69.4" gradientUnits="userSpaceOnUse">
      <stop offset="0" stop-color="#1c396b"/>
      <stop offset=".07" stop-color="#193e72"/>
      <stop offset=".18" stop-color="#134e88"/>
      <stop offset=".32" stop-color="#0a68aa"/>
      <stop offset=".35" stop-color="#086fb3"/>
      <stop offset=".43" stop-color="#0e5c9a"/>
      <stop offset=".53" stop-color="#144c85"/>
      <stop offset=".63" stop-color="#184176"/>
      <stop offset=".76" stop-color="#1b3b6d"/>
      <stop offset=".95" stop-color="#1c396b"/>
    </linearGradient>
  </defs>
  <path class="cls-1" d="m139.15,66.67c-.1-1.11-.09-2.18.12-3.26-.09-.74-.56-1.45-.17-2.23,0-.31.02-.63-.02-.93-1.3-9.53-4.36-18.45-9.27-26.73-3.83-6.47-8.76-12.02-14.25-17.09-.71-.44-1.01-1.37-1.89-1.6h0c-.38-.39-.78-.74-1.27-.98-2.73-1.9-5.44-3.82-8.36-5.44-6.81-3.78-13.99-6.49-21.7-7.74-.31.25-.69.06-1.2.23.32-.16.56-.09.65-.3-.71-.19-1.42-.68-2.13-.01-1.33-.65-2.78-.42-4.17-.57-3.72.19-7.44.18-11.15,0-.35,0-.7,0-1.04,0-.65-.09-1.29.39-1.95.02-.26,0-.52-.03-.78,0-9.67,1.27-18.64,4.57-27.06,9.43-.41.09-.71.34-1,.62h.01c-1.82.93-3.45,2.13-5,3.46-.43.13-.72.44-.95.81-1.44,1.38-2.89,2.74-4.53,3.89-.39.31-.82.58-1.12,1-.4.39-.79.79-1.19,1.18-1.04,1.16-2.36,2.08-3.17,3.46-1.08.87-1.65,2.18-2.7,3.08-1.27,2.02-2.84,3.86-3.9,6.02h0c-2.34,3.66-4.26,7.54-5.66,11.67-.18.6-.35,1.2-.54,1.79-1.62,4.96-3,9.98-3.3,15.23-.08.23-.12.47-.08.71.21.69.09,1.39.12,2.09-.06.47.3.93.1,1.41.1-.24.05-.48-.08-.71-.14-.06-.27-.04-.39.07-.06.07-.06.13.01.18-.19,2.5-.19,5,0,7.5,0,.16,0,.32-.01.48.19.12.35.08.48-.1.11-2.01-.04-4.02.09-6.02-.14,2.47.09,4.96-.2,7.43,0,.27,0,.54,0,.81-.05.76.39,1.5.03,2.26.44,5.13,1.74,10.06,3.41,14.91,2.64,7.63,6.68,14.48,11.63,20.82.33.61.84,1.06,1.3,1.57.93,1.45,2.31,2.48,3.45,3.73,1.12.87,1.78,2.24,3.11,2.88.26.17.54.32.77.53,7.2,6.28,15.38,10.82,24.49,13.68,4.58,1.44,9.24,2.61,14.08,2.78.55.19,1.11.12,1.67.09,3.69-.13,7.37.01,11.06,0,.55.03,1.11.12,1.65-.08,3.94-.16,7.73-1.09,11.51-2.09,5.94-1.57,11.47-4.13,16.82-7.08,1.51-.9,3.16-1.58,4.43-2.85,1.51-.61,2.47-1.95,3.78-2.83h-.01c1.09-.36,1.53-1.58,2.58-1.99.25-.15.38-.39.49-.65.36-.81,1-1.33,1.76-1.73.27-.2.61-.32.79-.63.22-.08.26-.29.35-.47.49-.93,1.14-1.69,2.11-2.13.88-.81,1.68-1.68,2.29-2.71,1.69-2.42,3.49-4.78,5.06-7.28,5.05-8.06,8.34-16.8,9.66-26.24-.2-.31-.09-.66-.11-1-.01-.13.03-.24.16-.3-.23.17-.11.31.04.45.35-.79.35-1.63.31-2.47-.09-3.33.27-6.66-.02-9.99Zm-35.17,37.11c-2.84,4.72-6.69,8.16-12.07,9.76-1.73.52-3.49.82-5.24,1.2-.35.37-.75.22-1.15.1-2.44,0-4.88.18-7.31-.18-4.4-.65-8.3-2.55-11.99-4.92-.7-.45-1.62-.63-2.06-1.46-.74-.79-1.56-1.47-2.56-1.91-.09-.08-.19-.15-.28-.23-.47-.52-.93-1.05-1.58-1.35-.2-.18-.41-.37-.61-.55-1.68-1.49-3.29-3.07-4.76-4.77-5.18-5.45-9.17-11.72-12.42-18.47-3.18-6.62-5.38-13.55-6.08-20.9-.02-.2-.11-.4-.17-.6-.39-.61-.12-1.28-.2-1.92.14-2.67-.38-5.38.5-8,1.03-4.98,2.83-9.67,5.31-14.11.25-.45.56-.87.84-1.31,1.32-1.46,2.3-3.19,3.8-4.5l.27-.22c.81-.45,1.61-.92,2.25-1.61,5.59-3.9,11.61-5.3,18.21-3,3.01,1.05,3.88,2.3,3.8,5.29.13.77-.13,1.47-.4,2.17-1.03,4.83-2.09,9.65-3.09,14.48-.23,1.11-.68,2.19-.65,3.36-.31.35.1.9-.34,1.2-.59,1.43-1.01,2.9-2.08,4.13-1.24,1.43-2.83,1.09-4.29.98-.6-.05-1.3-.47-2-.63-2.43-.55-2.46-.54-2.51,2.22.17.62.19,1.24,0,1.86.1,4.35,1.8,8.22,3.81,11.94,3.93,7.26,9.06,13.62,14.99,19.32.43.41,1.3,1.85,1.49-.22-.2-.77.1-1.44.42-2.1,1.06-2.82,2.41-5.4,4.96-7.23,2.38-1.71,3.41-1.73,5.26.6,2.31,2.9,4.75,5.69,7.28,8.4,3.66,3.92,7.25,7.89,10.62,12.05.35.36.28.73.03,1.11Z"/>
</svg>