<?xml version="1.0" encoding="UTF-8"?>
<svg id="Capa_2" data-name="Capa 2" xmlns="http://www.w3.org/2000/svg" xmlns:xlink="http://www.w3.org/1999/xlink" viewBox="0 0 32.41 32.29">
  <defs>
    <style>
      .cls-1 {
        fill: url(#Degradado_sin_nombre_10-7);
      }

      .cls-2 {
        fill: url(#Degradado_sin_nombre_10-8);
      }

      .cls-3 {
        fill: url(#Degradado_sin_nombre_10-3);
      }

      .cls-4 {
        fill: url(#Degradado_sin_nombre_10-4);
      }

      .cls-5 {
        fill: url(#Degradado_sin_nombre_10-2);
      }

      .cls-6 {
        fill: url(#Degradado_sin_nombre_10);
      }

      .cls-7 {
        fill: url(#Degradado_sin_nombre_10-5);
      }

      .cls-8 {
        fill: url(#Degradado_sin_nombre_10-9);
      }

      .cls-9 {
        fill: url(#Degradado_sin_nombre_10-6);
      }
    </style>
    <linearGradient id="Degradado_sin_nombre_10" data-name="Degradado sin nombre 10" x1="22.52" y1="19.08" x2="20.23" y2="19.08" gradientUnits="userSpaceOnUse">
      <stop offset="0" stop-color="#1c396b"/>
      <stop offset=".07" stop-color="#193e72"/>
      <stop offset=".18" stop-color="#134e88"/>
      <stop offset=".32" stop-color="#0a68aa"/>
      <stop offset=".35" stop-color="#086fb3"/>
      <stop offset=".43" stop-color="#0e5c9a"/>
      <stop offset=".53" stop-color="#144c85"/>
      <stop offset=".63" stop-color="#184176"/>
      <stop offset=".76" stop-color="#1b3b6d"/>
      <stop offset=".95" stop-color="#1c396b"/>
    </linearGradient>
    <linearGradient id="Degradado_sin_nombre_10-2" data-name="Degradado sin nombre 10" x1="30.51" y1="21.37" x2="-2.72" y2="21.37" xlink:href="#Degradado_sin_nombre_10"/>
    <linearGradient id="Degradado_sin_nombre_10-3" data-name="Degradado sin nombre 10" x1="12.76" y1="13.21" x2="9.32" y2="13.21" xlink:href="#Degradado_sin_nombre_10"/>
    <linearGradient id="Degradado_sin_nombre_10-4" data-name="Degradado sin nombre 10" x1="30.51" y1="10.93" x2="-2.72" y2="10.93" xlink:href="#Degradado_sin_nombre_10"/>
    <linearGradient id="Degradado_sin_nombre_10-5" data-name="Degradado sin nombre 10" x1="30.51" y1="13.3" x2="-2.72" y2="13.3" xlink:href="#Degradado_sin_nombre_10"/>
    <linearGradient id="Degradado_sin_nombre_10-6" data-name="Degradado sin nombre 10" x1="30.51" y1="21.37" x2="-2.72" y2="21.37" xlink:href="#Degradado_sin_nombre_10"/>
    <linearGradient id="Degradado_sin_nombre_10-7" data-name="Degradado sin nombre 10" x1="30.51" y1="16.15" x2="-2.72" y2="16.15" xlink:href="#Degradado_sin_nombre_10"/>
    <linearGradient id="Degradado_sin_nombre_10-8" data-name="Degradado sin nombre 10" x1="30.51" y1="10.93" x2="-2.72" y2="10.93" xlink:href="#Degradado_sin_nombre_10"/>
    <linearGradient id="Degradado_sin_nombre_10-9" data-name="Degradado sin nombre 10" x1="30.51" y1="13.24" x2="-2.72" y2="13.24" xlink:href="#Degradado_sin_nombre_10"/>
  </defs>
  <g id="Capa_1-2" data-name="Capa 1">
    <g>
      <polygon class="cls-6" points="21.37 19.08 21.38 19.08 21.37 19.08 21.37 19.08"/>
      <path class="cls-5" d="m20.12,21.38s.07-.02.1-.03c-.04,0-.07.01-.1.03Z"/>
      <polygon class="cls-3" points="11.04 13.21 11.04 13.21 11.04 13.21 11.04 13.21"/>
      <path class="cls-4" d="m20.12,10.91s.08.03.12.04l-.12-.04Z"/>
      <path class="cls-7" d="m11.09,13.3s-.01-.02-.02-.03c-.02.05,0,.08.02.03Z"/>
      <path class="cls-9" d="m12.29,21.38s-.08-.03-.12-.03c.04.01.08.02.12.03Z"/>
      <path class="cls-1" d="m16.21,0C7.26,0,0,7.23,0,16.15s7.26,16.15,16.21,16.15,16.21-7.23,16.21-16.15S25.16,0,16.21,0Zm3.68,6.3c.83.05,1.44.6,2.12.97.81.44,1.31,1.24,2.09,1.8-.82.31-1.58.53-2.35.75-.31.09-.43.04-.53-.26-.41-1.12-1.02-2.14-1.74-3.09-.15-.12-.33-.22-.38-.49.31.04.58.1.79.31Zm1.61,11.79c-.01.2-.02.39-.03.59.03.15,0,.28-.09.4.02,0,.03,0,0,0-.01.15-.03.31-.04.46-.21.52-.06,1.15-.46,1.62-.02.17.1.46-.28.32-.15-.05-.31-.07-.47-.1-.38-.1-.79-.03-1.15-.2-.2-.01-.39-.02-.59-.03-.23.02-.45.03-.66-.09h-3.03c-.21.11-.44.1-.66.09-.19.01-.39.02-.58.03-.37.17-.78.1-1.16.2-.27-.12-.74.54-.85-.22-.12-.54-.25-1.08-.37-1.62-.01-.15-.03-.31-.04-.46-.09-.12-.12-.26-.09-.41l-.03-.59c-.11-.25-.11-.51-.09-.77q-.05-.8.73-.8h9.31q.78,0,.73.8c.01.26.02.52-.09.77Zm-10.58-3.89l.03-.59c-.03-.15,0-.28.09-.4-.02,0-.03,0,0,0,.01-.15.03-.31.04-.46.12-.54.24-1.08.37-1.61.1-.71.52-.18.79-.21.02,0,.04,0,.05-.01.38.1.79.03,1.15.2.2.01.39.02.59.03.23-.02.45-.03.66.09h3.03c.21-.11.44-.1.66-.09l.58-.03c.37-.17.78-.1,1.16-.2.16-.03.32-.05.47-.1.4-.13.27.13.25.32.4.47.36,1.07.49,1.62.01.15.03.31.04.46.09.12.12.26.09.41.01.2.02.39.03.59.11.25.11.51.09.77q.05.8-.73.8h-9.31q-.78,0-.73-.8c-.01-.26-.02-.52.09-.77Zm3.36-7.97c.44-.36.98-.47,1.5-.65.29-.05.57-.05.86,0,1.52.25,2.31,1.41,3.09,2.54.34.49.53,1.09.8,1.64.1.2.16.36-.17.35-.15.02-.3.03-.45.05-.08.08-.18.1-.29.08-.16.01-.31.02-.47.03-.16.1-.34.11-.53.09-.24.01-.47.02-.71.04-.38.13-.77.1-1.16.09h-1.11c-.39.01-.78.04-1.15-.09-.24-.01-.47-.02-.71-.04-.18.02-.36,0-.53-.09-.16-.01-.31-.02-.47-.04-.11.02-.21,0-.29-.08-.15-.02-.3-.03-.46-.05-.24.01-.28-.08-.19-.3.54-1.37,1.25-2.63,2.42-3.58Zm-1.86.07c.16-.19.4-.23.62-.27.08-.02.21-.13.25.03.04.14-.11.2-.21.26-.79.98-1.51,2-1.9,3.22-.11.35-.25.37-.57.27-.74-.25-1.49-.45-2.36-.7,1.21-1.32,2.53-2.27,4.16-2.8Zm-6.72,8.63c.01-.15.02-.31.04-.46.22-1.67.88-3.15,1.83-4.52.14-.2.25-.32.54-.21.76.29,1.55.52,2.32.78.54.03.33.33.23.6-.11.47-.22.93-.33,1.4-.01.15-.03.31-.04.46-.03.13-.06.27-.09.4-.01.2-.02.39-.03.59.02.15,0,.29-.08.41q.02,1.39-1.35,1.39c-.9,0-1.81,0-2.71,0-.14,0-.4.16-.41-.18-.02-.23-.04-.45.09-.65Zm1.87,7.39c-.95-1.37-1.62-2.85-1.83-4.51-.01-.15-.02-.3-.04-.46-.13-.2-.11-.43-.09-.65.01-.34.27-.18.41-.18,1.17-.01,2.34.01,3.52-.02.44-.01.59.11.54.54-.03.28,0,.57,0,.86.09.13.1.27.08.42.01.2.02.39.03.59.03.13.06.27.09.4.01.15.03.3.04.46.11.47.22.93.33,1.4.1.27.31.57-.23.6-.78.26-1.57.49-2.33.78-.31.12-.41-.03-.54-.22Zm4.82,3.67c-1.6-.52-2.88-1.5-4.08-2.8.76-.17,1.46-.38,2.13-.63.82-.32.81.23.94.64.34,1.03,1.1,1.82,1.59,2.77.2-.03.29.09.37.32-.37,0-.67-.08-.95-.28Zm5.3.35c-.32.19-.67.32-1.04.36-.29.05-.57.05-.86,0-1.09-.16-1.85-.85-2.5-1.66-.6-.74-1.03-1.58-1.37-2.46-.06-.16-.29-.41.14-.41.15-.02.3-.03.45-.05.08-.08.18-.1.29-.08.16-.01.31-.02.47-.03.16-.1.34-.11.53-.09.24-.01.47-.02.71-.04.38-.13.77-.1,1.16-.09h1.11c.39-.01.78-.04,1.15.09.24.01.47.02.71.04.18-.02.36,0,.53.09.16.01.31.02.47.03.11-.02.21,0,.29.08.15.02.3.03.46.05.18-.01.31.04.22.24-.67,1.52-1.38,3.03-2.9,3.93Zm2.21-.35c-.17.27-.5.17-.78.44,0-.39.22-.48.37-.61.73-.99,1.38-2.03,1.78-3.2.08-.24.22-.23.43-.16.78.25,1.57.47,2.43.73-1.25,1.3-2.51,2.4-4.24,2.81Zm6.83-8.64c-.01.15-.02.31-.04.46-.22,1.66-.88,3.14-1.83,4.51-.13.19-.23.34-.54.22-.77-.29-1.55-.53-2.33-.79-.65.02-.26-.36-.23-.6.11-.47.22-.93.33-1.4.01-.15.03-.31.04-.46.03-.13.06-.27.09-.4.01-.2.02-.39.03-.59-.02-.15,0-.29.08-.41q-.02-1.39,1.35-1.39c.9,0,1.81,0,2.71,0,.14,0,.4-.16.41.18.02.23.04.45-.09.65Zm.09-1.76c-.01.34-.27.18-.41.18-1.17.01-2.34-.01-3.52.02-.44.01-.59-.11-.54-.54.03-.28,0-.57,0-.86-.09-.13-.1-.27-.08-.42-.01-.2-.02-.39-.03-.59-.03-.13-.06-.27-.09-.4-.01-.15-.03-.3-.04-.46-.11-.47-.22-.93-.33-1.4-.04-.24-.42-.62.23-.6.75-.25,1.5-.48,2.24-.75.3-.11.47-.07.65.2.94,1.37,1.6,2.85,1.82,4.5.01.15.02.3.04.46.13.21.11.43.09.65Z"/>
      <path class="cls-2" d="m12.29,10.91s-.04.01-.05.01c-.02,0-.04.01-.06.02.04,0,.08-.01.12-.03Z"/>
      <path class="cls-8" d="m11.04,13.21s.02.04.03.06c0,0,0-.02.01-.03.03-.04-.02-.04-.05-.03Z"/>
    </g>
  </g>
</svg>