<?xml version="1.0" encoding="UTF-8"?>
<svg id="Capa_1" data-name="Capa 1" xmlns="http://www.w3.org/2000/svg" xmlns:xlink="http://www.w3.org/1999/xlink" viewBox="0 0 181 181">
  <defs>
    <style>
      .cls-1 {
        fill: url(#Degradado_sin_nombre_10);
      }
    </style>
    <linearGradient id="Degradado_sin_nombre_10" data-name="Degradado sin nombre 10" x1="10.23" y1="90.5" x2="170.77" y2="90.5" gradientUnits="userSpaceOnUse">
      <stop offset="0" stop-color="#1c396b"/>
      <stop offset=".07" stop-color="#193e72"/>
      <stop offset=".18" stop-color="#134e88"/>
      <stop offset=".32" stop-color="#0a68aa"/>
      <stop offset=".35" stop-color="#086fb3"/>
      <stop offset=".43" stop-color="#0e5c9a"/>
      <stop offset=".53" stop-color="#144c85"/>
      <stop offset=".63" stop-color="#184176"/>
      <stop offset=".76" stop-color="#1b3b6d"/>
      <stop offset=".95" stop-color="#1c396b"/>
    </linearGradient>
  </defs>
  <path class="cls-1" d="m43.34,10.05c3.19.69,6.25,1.67,8.8,3.82.36.3.74.59,1.07.92,7.23,7.22,14.48,14.4,21.65,21.67,5.33,5.4,6.25,12.82,2.5,18.99-1.69,2.78-4.08,4.74-7.15,5.84-4.43,1.59-7.85,4.31-9.76,8.72-1.27,2.94-1.44,5.94-.62,9.04,2.33,8.73,7.29,15.92,13.25,22.5,6.2,6.84,13.23,12.67,21.58,16.74,3.73,1.82,7.57,3.42,11.87,2.82,5.69-.8,10.04-3.57,12.27-9.01,1.49-3.62,3.32-6.84,6.85-8.87,5.52-3.17,12.57-2.74,17.29,1.51,4,3.6,7.73,7.52,11.54,11.33,4.29,4.3,8.72,8.47,12.74,13.01,4.54,5.12,4.64,13.22.65,18.8-.82,1.14-1.74,2.23-2.72,3.23-4.23,4.29-8.58,8.46-12.74,12.81-3.8,3.96-8.36,6.18-13.78,6.75-.24.03-.48.17-.71.26h-6.6c-2.91-.56-5.86-.99-8.73-1.72-11.84-3.01-22.54-8.57-32.73-15.15-16.91-10.92-31.76-24.24-45.01-39.35-11.65-13.28-21.74-27.62-28.69-43.97-3.27-7.69-5.68-15.62-5.92-24.07-.21-7.45,1.76-14,7.49-19.21,3.71-3.38,7.21-7,10.67-10.64,3.21-3.37,6.68-6.16,11.47-6.79h3.46Z"/>
</svg>