<?xml version="1.0" encoding="UTF-8"?>
<svg id="Capa_1" data-name="Capa 1" xmlns="http://www.w3.org/2000/svg" xmlns:xlink="http://www.w3.org/1999/xlink" viewBox="0 0 139.27 138.8">
  <defs>
    <style>
      .cls-1 {
        fill: #fff;
      }

      .cls-2 {
        fill: url(#Degradado_sin_nombre_10);
      }
    </style>
    <linearGradient id="Degradado_sin_nombre_10" data-name="Degradado sin nombre 10" x1="163.55" y1="69.4" x2="-66.34" y2="69.4" gradientUnits="userSpaceOnUse">
      <stop offset="0" stop-color="#1c396b"/>
      <stop offset=".07" stop-color="#193e72"/>
      <stop offset=".18" stop-color="#134e88"/>
      <stop offset=".32" stop-color="#0a68aa"/>
      <stop offset=".35" stop-color="#086fb3"/>
      <stop offset=".43" stop-color="#0e5c9a"/>
      <stop offset=".53" stop-color="#144c85"/>
      <stop offset=".63" stop-color="#184176"/>
      <stop offset=".76" stop-color="#1b3b6d"/>
      <stop offset=".95" stop-color="#1c396b"/>
    </linearGradient>
  </defs>
  <circle class="cls-2" cx="69.63" cy="69.4" r="69.5"/>
  <path class="cls-1" d="m96.94,35.96c0-2.48,0-4.96,0-7.44,0-2.1-.7-3.93-2.22-5.41-1.07-1.04-2.42-1.51-3.8-1.92h-42.56c-4.7,1.62-6.02,3.49-6.02,8.56v11.77c0,22.85,0,45.69,0,68.53,0,4.47,2.91,7.54,7.25,7.54,13.37.02,26.74.03,40.11-.02,1.09,0,2.27-.26,3.26-.73,2.85-1.35,4-3.8,4-6.88,0-24.66,0-49.33,0-73.99Zm-36.62-10.49c3.14,0,6.27,0,9.41,0s6.21,0,9.32,0c1.09,0,1.5.47,1.51,1.65,0,1.22-.44,1.73-1.56,1.73-6.24,0-12.48,0-18.73,0-1.12,0-1.57-.51-1.56-1.73,0-1.21.43-1.65,1.6-1.65Zm31.33,69.79h-43.99v-62.15h43.99v62.15Z"/>
</svg>