<?xml version="1.0" encoding="UTF-8"?>
<svg id="Capa_1" data-name="Capa 1" xmlns="http://www.w3.org/2000/svg" xmlns:xlink="http://www.w3.org/1999/xlink" viewBox="0 0 181 181">
  <defs>
    <style>
      .cls-1 {
        fill: url(#Degradado_sin_nombre_10);
      }
    </style>
    <linearGradient id="Degradado_sin_nombre_10" data-name="Degradado sin nombre 10" x1="41.76" y1="90.5" x2="139.24" y2="90.5" gradientUnits="userSpaceOnUse">
      <stop offset="0" stop-color="#1c396b"/>
      <stop offset=".07" stop-color="#193e72"/>
      <stop offset=".18" stop-color="#134e88"/>
      <stop offset=".32" stop-color="#0a68aa"/>
      <stop offset=".35" stop-color="#086fb3"/>
      <stop offset=".43" stop-color="#0e5c9a"/>
      <stop offset=".53" stop-color="#144c85"/>
      <stop offset=".63" stop-color="#184176"/>
      <stop offset=".76" stop-color="#1b3b6d"/>
      <stop offset=".95" stop-color="#1c396b"/>
    </linearGradient>
  </defs>
  <path class="cls-1" d="m52.51,176.48c-2.53-.74-4.99-1.62-6.91-3.54-2.64-2.63-3.83-5.85-3.83-9.54,0-4.65,0-9.29,0-13.94,0-43.77,0-87.53,0-131.3,0-5.51,2.03-9.86,7.12-12.28,1.76-.83,3.86-1.3,5.81-1.3,23.85-.09,47.69-.08,71.54-.04,7.73.01,12.93,5.49,12.93,13.45,0,38.84,0,77.68,0,116.52,0,8.9-.19,17.8.06,26.69.2,6.94-2.15,13.07-10.8,15.26H52.51Zm-1.3-39.83h78.46V25.8H51.21v110.85ZM90.62,12.17c-5.59,0-11.19,0-16.78,0-2.09,0-2.84.8-2.84,2.97,0,2.17.79,3.06,2.8,3.06,11.13,0,22.27,0,33.4,0,1.98,0,2.78-.92,2.76-3.1-.02-2.11-.76-2.92-2.71-2.92-5.54,0-11.08,0-16.62,0Zm-.15,151.91c4.39,0,8.03-3.64,7.99-8-.04-4.33-3.57-7.85-7.91-7.88-4.42-.04-8.04,3.5-8.07,7.9-.03,4.35,3.61,7.99,8,7.99Z"/>
</svg>