<?xml version="1.0" encoding="UTF-8"?>
<svg id="Capa_1" data-name="Capa 1" xmlns="http://www.w3.org/2000/svg" viewBox="0 0 107.14 107.38">
  <defs>
    <style>
      .cls-1 {
        fill: #1c396b;
      }
    </style>
  </defs>
  <path class="cls-1" d="m22.1,0c2.13.46,4.17,1.11,5.87,2.55.24.2.49.39.71.61,4.82,4.82,9.66,9.61,14.45,14.46,3.56,3.6,4.18,8.56,1.67,12.67-1.13,1.86-2.72,3.16-4.77,3.9-2.96,1.06-5.24,2.87-6.52,5.82-.85,1.96-.97,3.96-.41,6.03,1.44,5.4,4.4,9.92,8.01,14.07,4.33,4.98,9.28,9.2,15.24,12.12,2.49,1.22,5.05,2.28,7.92,1.88,3.8-.53,6.7-2.38,8.19-6,.98-2.38,2.17-4.51,4.48-5.87,3.75-2.2,8.49-1.91,11.71,1.02,2.94,2.68,5.7,5.56,8.52,8.38,2.57,2.57,5.23,5.07,7.62,7.79,3.02,3.44,3.1,8.83.44,12.55-.55.76-1.16,1.49-1.82,2.16-2.82,2.86-5.74,5.63-8.5,8.55-2.95,3.11-6.59,4.47-10.76,4.65-4.46.19-8.74-.81-12.93-2.22-8.25-2.79-15.68-7.12-22.73-12.16-11.68-8.35-21.9-18.23-30.72-29.55-6.51-8.36-12.08-17.29-15.52-27.39C.79,31.69-.2,27.23.04,22.58c.21-4.1,1.55-7.67,4.6-10.56,2.56-2.42,5.06-4.93,7.49-7.48C14.27,2.29,16.59.43,19.79,0h2.31Z"/>
</svg>