<?xml version="1.0" encoding="UTF-8"?>
<svg id="Capa_1" data-name="Capa 1" xmlns="http://www.w3.org/2000/svg" viewBox="0 0 107.14 107.38">
  <defs>
    <style>
      .cls-1 {
        fill: #1c396b;
      }
    </style>
  </defs>
  <path class="cls-1" d="m106.86,33.01c-.6,2.2-2.11,3.77-3.64,5.34-2.71,2.8-5.37,5.64-8.06,8.46-2.98,3.13-6.62,3.27-9.7.22-3.41-3.37-7.14-6.28-11.35-8.6-2.21-1.22-3.27-3.17-3.55-5.67-.41-3.66-.93-7.31-1.45-10.95-.05-.32-.36-.78-.64-.87-5.91-1.86-11.93-2.93-18.17-2.43-4.08.33-8.03,1.22-11.92,2.43-.27.08-.58.48-.62.77-.52,3.68-1.06,7.36-1.46,11.06-.27,2.51-1.37,4.42-3.59,5.63-4.21,2.31-7.94,5.22-11.35,8.6-2.96,2.94-6.81,2.81-9.67-.2-3.17-3.32-6.33-6.65-9.49-9.99-3-3.17-2.93-7.07.12-10.19,8.24-8.42,17.85-14.67,29.05-18.38,9.06-3.01,18.35-4.08,27.86-3.29,12.43,1.03,23.76,5.14,34.04,12.18,4.21,2.88,8.1,6.14,11.54,9.89.92,1,1.37,2.44,2.03,3.68v2.3Z"/>
  <path class="cls-1" d="m53.35,102.67c-11.58,0-23.17,0-34.75,0-2.51,0-4.82-.58-6.72-2.33-1.71-1.57-2.84-3.5-2.87-5.83-.09-5.81-.12-11.62.03-17.42.04-1.49.66-3.07,1.37-4.42,4.57-8.74,9.23-17.44,13.9-26.14,2.22-4.14,5.73-6.21,10.43-6.21,12.45,0,24.91,0,37.36,0,4.75,0,8.27,2.09,10.51,6.27,4.63,8.64,9.22,17.29,13.84,25.93,1,1.88,1.52,3.86,1.51,5.99-.02,4.94.02,9.88-.01,14.82-.03,4.57-2.46,7.84-6.74,9.01-.99.27-2.06.32-3.09.32-11.58.02-23.17.01-34.75.01Zm-8.86-44.51c.02-2.46-1.95-4.46-4.38-4.48-2.44-.02-4.44,1.96-4.46,4.41-.02,2.47,1.92,4.45,4.38,4.49,2.43.03,4.45-1.96,4.46-4.41Zm26.72,0c.01-2.46-1.95-4.46-4.39-4.48-2.44-.02-4.44,1.96-4.45,4.41-.01,2.47,1.93,4.45,4.39,4.48,2.43.03,4.44-1.97,4.46-4.41Zm-26.72,13.29c-.02-2.45-2.02-4.43-4.46-4.41-2.44.02-4.4,2.03-4.38,4.48.02,2.45,2.03,4.44,4.46,4.41,2.45-.03,4.4-2.02,4.38-4.49Zm17.88.01c-.01,2.47,1.94,4.45,4.39,4.47,2.43.02,4.44-1.97,4.45-4.42.01-2.46-1.96-4.46-4.4-4.47-2.44-.01-4.43,1.97-4.45,4.42Zm-17.88,13.36c-.01-2.45-2-4.44-4.45-4.42-2.44.01-4.41,2.01-4.4,4.47.01,2.46,2.01,4.44,4.44,4.42,2.45-.02,4.41-2.01,4.4-4.47Zm26.72.07c.02-2.46-1.94-4.46-4.38-4.49-2.44-.02-4.44,1.95-4.46,4.4-.02,2.47,1.92,4.45,4.37,4.49,2.43.04,4.45-1.96,4.47-4.4Zm-13.35-26.81c-.02-2.45-2.03-4.42-4.47-4.4-2.44.03-4.4,2.03-4.38,4.49.02,2.45,2.04,4.44,4.47,4.4,2.46-.04,4.4-2.03,4.38-4.49Zm0,13.4c0-2.45-1.99-4.44-4.43-4.44-2.44,0-4.42,2-4.42,4.45,0,2.46,1.99,4.45,4.43,4.44,2.45,0,4.42-2,4.42-4.46Zm0,13.35c0-2.45-2-4.44-4.44-4.43-2.44,0-4.42,2.01-4.41,4.46,0,2.46,2,4.45,4.44,4.43,2.45-.01,4.41-2,4.41-4.46Z"/>
</svg>