<?xml version="1.0" encoding="UTF-8"?>
<svg id="Capa_1" data-name="Capa 1" xmlns="http://www.w3.org/2000/svg" xmlns:xlink="http://www.w3.org/1999/xlink" viewBox="0 0 270 200">
  <defs>
    <style>
      .cls-1 {
        fill: url(#Degradado_sin_nombre_2-8);
      }

      .cls-2 {
        fill: url(#Degradado_sin_nombre_2-4);
      }

      .cls-3 {
        stroke: #1c396b;
        stroke-miterlimit: 10;
        stroke-width: 2px;
      }

      .cls-3, .cls-4 {
        fill: none;
      }

      .cls-5 {
        fill: url(#Degradado_sin_nombre_2-5);
      }

      .cls-6 {
        fill: url(#Degradado_sin_nombre_2-11);
      }

      .cls-7 {
        fill: #1c396b;
        font-family: MyriadPro-Regular, 'Myriad Pro';
        font-size: 1.72px;
      }

      .cls-8 {
        fill: url(#Degradado_sin_nombre_2-6);
      }

      .cls-9 {
        fill: url(#Degradado_sin_nombre_2-3);
      }

      .cls-10 {
        fill: url(#Degradado_sin_nombre_2-12);
      }

      .cls-11 {
        fill: url(#Degradado_sin_nombre_2);
      }

      .cls-12 {
        fill: url(#Degradado_sin_nombre_2-7);
      }

      .cls-4 {
        stroke: #1d3c68;
        stroke-linecap: round;
        stroke-miterlimit: 8;
        stroke-width: 3px;
      }

      .cls-13 {
        fill: url(#Degradado_sin_nombre_2-9);
      }

      .cls-14 {
        fill: url(#Degradado_sin_nombre_2-10);
      }

      .cls-15 {
        fill: url(#Degradado_sin_nombre_2-2);
      }
    </style>
    <linearGradient id="Degradado_sin_nombre_2" data-name="Degradado sin nombre 2" x1="150.76" y1="101.04" x2="167.87" y2="101.04" gradientUnits="userSpaceOnUse">
      <stop offset="0" stop-color="#1c396b"/>
      <stop offset=".1" stop-color="#193e72"/>
      <stop offset=".24" stop-color="#114d86"/>
      <stop offset=".41" stop-color="#0565a8"/>
      <stop offset=".47" stop-color="#006fb6"/>
      <stop offset=".52" stop-color="#0563a6"/>
      <stop offset=".62" stop-color="#0f518c"/>
      <stop offset=".73" stop-color="#164379"/>
      <stop offset=".84" stop-color="#1a3b6e"/>
      <stop offset=".95" stop-color="#1c396b"/>
    </linearGradient>
    <linearGradient id="Degradado_sin_nombre_2-2" data-name="Degradado sin nombre 2" x1="73.67" y1="101.03" x2="90.71" y2="101.03" xlink:href="#Degradado_sin_nombre_2"/>
    <linearGradient id="Degradado_sin_nombre_2-3" data-name="Degradado sin nombre 2" x1="55.3" y1="100.97" x2="72.05" y2="100.97" xlink:href="#Degradado_sin_nombre_2"/>
    <linearGradient id="Degradado_sin_nombre_2-4" data-name="Degradado sin nombre 2" x1="118.75" y1="100.99" x2="135.12" y2="100.99" xlink:href="#Degradado_sin_nombre_2"/>
    <linearGradient id="Degradado_sin_nombre_2-5" data-name="Degradado sin nombre 2" x1="133.12" y1="101.06" x2="150.22" y2="101.06" xlink:href="#Degradado_sin_nombre_2"/>
    <linearGradient id="Degradado_sin_nombre_2-6" data-name="Degradado sin nombre 2" x1="105.38" y1="101.05" x2="122.98" y2="101.05" xlink:href="#Degradado_sin_nombre_2"/>
    <linearGradient id="Degradado_sin_nombre_2-7" data-name="Degradado sin nombre 2" x1="169.92" y1="101.07" x2="186.84" y2="101.07" xlink:href="#Degradado_sin_nombre_2"/>
    <linearGradient id="Degradado_sin_nombre_2-8" data-name="Degradado sin nombre 2" x1="91.98" y1="100.99" x2="108.9" y2="100.99" xlink:href="#Degradado_sin_nombre_2"/>
    <linearGradient id="Degradado_sin_nombre_2-9" data-name="Degradado sin nombre 2" x1="56.76" y1="101.43" x2="46.68" y2="103.58" xlink:href="#Degradado_sin_nombre_2"/>
    <linearGradient id="Degradado_sin_nombre_2-10" data-name="Degradado sin nombre 2" x1="27.13" y1="100" x2="48.94" y2="100" xlink:href="#Degradado_sin_nombre_2"/>
    <linearGradient id="Degradado_sin_nombre_2-11" data-name="Degradado sin nombre 2" x1="58.56" y1="97.71" x2="25.41" y2="105.07" xlink:href="#Degradado_sin_nombre_2"/>
    <linearGradient id="Degradado_sin_nombre_2-12" data-name="Degradado sin nombre 2" x1="57.54" y1="93.13" x2="24.39" y2="100.49" xlink:href="#Degradado_sin_nombre_2"/>
  </defs>
  <line class="cls-4" x1="221.7" y1="4.5" x2="221.7" y2="196"/>
  <g>
    <g>
      <g>
        <path class="cls-11" d="m167.85,108.47c-2.54,0-4.96.01-7.38,0-1.26-.01-2.53.03-3.76-.15-3.37-.49-5.37-2.46-5.82-5.81-.35-2.58.03-5.04,2.06-6.95,1.21-1.14,2.69-1.83,4.3-1.88,3.49-.11,6.99-.03,10.6-.03,0,.86.03,1.68-.03,2.5-.01.17-.37.46-.57.46-2.98,0-5.95-.07-8.93-.1-2.04-.02-3.81,1.23-4.36,3.13h11.28v2.9h-11.21c.48,1.73,2.02,2.89,3.81,2.9,3.01.02,6.02.03,9.03,0,.74,0,1.07.17,1,.97-.06.66-.01,1.33-.01,2.08Z"/>
        <path class="cls-15" d="m82.21,108.48c-2.03.1-3.97-.18-5.71-1.33-1.26-.83-2.15-1.97-2.49-3.42-1.2-5.17.65-9.63,7.11-10.11,1.81-.14,3.62-.04,5.34.65,2.59,1.04,3.99,2.97,4.2,5.73.08,1.03.08,2.1-.12,3.11-.63,3.16-3.07,5.12-6.49,5.36-.61.04-1.23,0-1.84,0Zm-.09-2.82s.02.07.04.11c1.04-.23,2.11-.37,3.1-.73,1.76-.64,2.58-2.05,2.59-3.86.02-1.75-.71-3.16-2.37-3.94-1.55-.72-3.18-.86-4.85-.6-2.49.38-3.91,1.87-3.99,4.17-.09,2.55,1.17,4.14,3.74,4.67.57.12,1.16.12,1.74.17Z"/>
        <path class="cls-9" d="m72.05,105.58v2.71c-.39.02-.74.05-1.1.05-2.85,0-5.71,0-8.56,0-4.08,0-6.81-2.58-7.06-6.67-.31-4.95,2.62-8.07,7.58-8.07,3.01,0,6.01,0,9.1,0v3.04c-.22,0-.45,0-.68,0-2.89,0-5.77-.05-8.66,0-3.35.07-5.18,2.45-4.45,5.68.43,1.91,2.12,3.22,4.27,3.25,2.82.03,5.65,0,8.47,0,.33,0,.66,0,1.1,0Z"/>
        <path class="cls-2" d="m127.49,96.96c-.84,1.64-1.62,3.17-2.39,4.69-.98,1.94-2,3.87-2.9,5.85-.38.84-.87,1.16-1.75,1.04-.51-.07-1.03-.01-1.69-.01.19-.42.32-.72.46-1.01,2.1-4.16,4.19-8.32,6.29-12.49.43-.86.96-1.62,2.03-1.62,1.09,0,1.7.72,2.15,1.62,1.64,3.26,3.29,6.52,4.89,9.79.29.59.48,1.27.53,1.92.09,1.09-.46,1.72-1.55,1.74-2.64.05-5.27.02-8.1.02.43-.9.79-1.72,1.23-2.5.09-.16.47-.22.73-.22,1.14-.02,2.27,0,3.41-.02.79-.01,1.07-.38.74-1.04-1.21-2.48-2.46-4.94-3.71-7.4-.05-.1-.17-.16-.38-.37Z"/>
        <path class="cls-5" d="m150.04,93.67c.05.1.07.13.07.16q.27,2.81-2.49,2.81h-4.6v11.83h-2.89v-11.89h-7.01v-2.9h16.92Z"/>
        <path class="cls-8" d="m122.98,93.6c-.17.39-.28.67-.41.93-2.03,4.06-4.06,8.12-6.09,12.18-.08.16-.15.34-.25.49-.45.75-1.01,1.31-1.96,1.31-.95,0-1.53-.56-1.94-1.33-1.37-2.64-2.71-5.3-4.07-7.94-.93-1.83-1.87-3.65-2.88-5.64,1.03,0,1.93-.04,2.82.03.24.02.52.37.65.63,1.62,3.27,3.22,6.55,4.83,9.83.13.27.27.53.51.98.28-.43.5-.7.65-1,1.62-3.2,3.24-6.41,4.82-9.63.31-.63.65-.96,1.39-.86.59.08,1.2.02,1.92.02Z"/>
        <path class="cls-12" d="m170.03,93.65h2.65c.02.35.05.71.05,1.06,0,2.82,0,5.65,0,8.47,0,1.57.79,2.37,2.38,2.38,3.59.01,7.18,0,10.77,0,.3,0,.6.03.95.04v2.86c-.37,0-.69,0-1.02,0-3.99,0-7.98.06-11.97-.04-.95-.02-2-.39-2.8-.9-.55-.35-1.05-1.23-1.07-1.89-.1-3.89-.05-7.79-.04-11.69,0-.08.05-.17.1-.3Z"/>
        <path class="cls-1" d="m92.09,93.63h2.74c0,.83,0,1.65,0,2.47,0,2.51-.03,5.03.03,7.54.03,1.34.78,1.98,2.13,1.99,3.59.01,7.18,0,10.77,0,.36,0,.72,0,1.14,0v2.63c-.25.03-.48.09-.72.09-4.24,0-8.47,0-12.71,0-1.04,0-2.07-.16-2.73-1.04-.37-.49-.72-1.14-.72-1.73-.06-3.9-.02-7.79-.02-11.69,0-.06.04-.11.09-.25Z"/>
      </g>
      <g>
        <circle class="cls-3" cx="188.12" cy="92.57" r="1.01"/>
        <text class="cls-7" transform="translate(187.67 93.2)"><tspan x="0" y="0">R</tspan></text>
      </g>
    </g>
    <g>
      <path class="cls-13" d="m50.3,103.1s1.1-.52,2.56-1.88c0,0,1.15-.94,1.46.42,0,0-.57,1.43-4.43,2.47l.41-1.01Z"/>
      <path class="cls-14" d="m40.15,110.04c-5.98,0-10.82-4.73-10.82-10.56s4.84-10.56,10.82-10.56c1.11,0,2.19.16,3.2.47.04.01.05-.04.02-.06-1.37-.54-2.86-.83-4.42-.83-6.52,0-11.81,5.15-11.81,11.5s5.29,11.5,11.81,11.5c4.19,0,7.87-2.12,9.96-5.32.11-.17-.13-.34-.25-.18-1.98,2.46-5.06,4.04-8.51,4.04Z"/>
      <path class="cls-6" d="m50.82,97.85l.12,1.75s2.38-1.22,3-2.9c.28-.77-.01-1.62-.73-2.02-.86-.48-2.53-.74-5.8.16-5.18,1.44-6.98,2.27-7.47,2.52-.14.08-.29.15-.44.22-1.24.63-6.43,3.43-10.59,8.75-.32.41-.58.87-.74,1.37-.35,1.08-.32,2.55,3.14,1.35,0,0-4.4.9-1.99-2.42,2.07-2.86,5.6-5.27,6.56-5.89.15-.1.3-.2.45-.29,1.09-.73,6.5-4.12,13.49-4.78,0,0,5.07-.65,1,2.17Z"/>
      <path class="cls-10" d="m28.4,105.71s-.84.73-2.09.52c-1.25-.21-1.38-.52-1.38-.52,0,0-.61-1.46,1.9-4.08,1.32-1.37,2.15-2.28,2.63-2.84.61-.7,1.27-1.36,1.98-1.97,1.92-1.65,5.64-4.52,9.81-5.96,6.06-2.09,7.53-2.09,7.53-2.09,0,0,3.24-.31,3.03,1.25-.12.9-.58,1.31-.95,1.51-.22.11-.46.16-.7.16-1.16,0-7.43.18-13.19,2.82-4.44,2.04-6.45,3.82-7.26,4.72-.51.56-1.03,1.11-1.57,1.64-1.15,1.16-2.78,3.04-2.57,4.2.31,1.78,2.82.63,2.82.63Z"/>
    </g>
  </g>
</svg>