<?xml version="1.0" encoding="UTF-8"?>
<svg id="Capa_2" data-name="Capa 2" xmlns="http://www.w3.org/2000/svg" xmlns:xlink="http://www.w3.org/1999/xlink" viewBox="0 0 394.87 58.35">
  <defs>
    <style>
      .cls-1 {
        fill: url(#Degradado_sin_nombre_52-13);
      }

      .cls-2 {
        fill: url(#Degradado_sin_nombre_52);
      }

      .cls-3 {
        fill: url(#Degradado_sin_nombre_52-14);
      }

      .cls-4 {
        fill: url(#Degradado_sin_nombre_52-12);
      }

      .cls-5 {
        fill: url(#Degradado_sin_nombre_52-16);
      }

      .cls-6 {
        fill: url(#Degradado_sin_nombre_52-10);
      }

      .cls-7 {
        fill: url(#Degradado_sin_nombre_52-4);
      }

      .cls-8 {
        fill: url(#Degradado_sin_nombre_52-6);
      }

      .cls-9 {
        fill: url(#Degradado_sin_nombre_52-5);
      }

      .cls-10 {
        fill: url(#Degradado_sin_nombre_52-8);
      }

      .cls-11 {
        fill: url(#Degradado_sin_nombre_52-2);
      }

      .cls-12 {
        fill: url(#Degradado_sin_nombre_52-7);
      }

      .cls-13 {
        fill: url(#Degradado_sin_nombre_52-18);
      }

      .cls-14 {
        fill: url(#Degradado_sin_nombre_52-9);
      }

      .cls-15 {
        fill: url(#Degradado_sin_nombre_52-15);
      }

      .cls-16 {
        fill: url(#Degradado_sin_nombre_52-3);
      }

      .cls-17 {
        fill: #1c396b;
        font-family: MyriadPro-Regular, 'Myriad Pro';
        font-size: 4.1px;
      }

      .cls-18 {
        fill: none;
        stroke: #1c396b;
        stroke-miterlimit: 10;
        stroke-width: .25px;
      }

      .cls-19 {
        fill: url(#Degradado_sin_nombre_52-17);
      }

      .cls-20 {
        fill: url(#Degradado_sin_nombre_52-11);
      }
    </style>
    <linearGradient id="Degradado_sin_nombre_52" data-name="Degradado sin nombre 52" x1="303.42" y1="22.7" x2="344.13" y2="22.7" gradientUnits="userSpaceOnUse">
      <stop offset="0" stop-color="#1c396b"/>
      <stop offset=".09" stop-color="#193e72"/>
      <stop offset=".23" stop-color="#114c86"/>
      <stop offset=".4" stop-color="#0663a8"/>
      <stop offset=".47" stop-color="#006fb9"/>
      <stop offset=".53" stop-color="#0662a6"/>
      <stop offset=".63" stop-color="#10508c"/>
      <stop offset=".73" stop-color="#164379"/>
      <stop offset=".84" stop-color="#1a3b6e"/>
      <stop offset=".95" stop-color="#1c396b"/>
    </linearGradient>
    <linearGradient id="Degradado_sin_nombre_52-2" data-name="Degradado sin nombre 52" x1="119.94" y1="22.67" x2="160.49" y2="22.67" xlink:href="#Degradado_sin_nombre_52"/>
    <linearGradient id="Degradado_sin_nombre_52-3" data-name="Degradado sin nombre 52" x1="76.22" y1="22.53" x2="116.08" y2="22.53" xlink:href="#Degradado_sin_nombre_52"/>
    <linearGradient id="Degradado_sin_nombre_52-4" data-name="Degradado sin nombre 52" x1="227.24" y1="22.57" x2="266.19" y2="22.57" xlink:href="#Degradado_sin_nombre_52"/>
    <linearGradient id="Degradado_sin_nombre_52-5" data-name="Degradado sin nombre 52" x1="261.42" y1="22.75" x2="302.13" y2="22.75" xlink:href="#Degradado_sin_nombre_52"/>
    <linearGradient id="Degradado_sin_nombre_52-6" data-name="Degradado sin nombre 52" x1="195.4" y1="22.7" x2="237.3" y2="22.7" xlink:href="#Degradado_sin_nombre_52"/>
    <linearGradient id="Degradado_sin_nombre_52-7" data-name="Degradado sin nombre 52" x1="349.01" y1="22.76" x2="389.28" y2="22.76" xlink:href="#Degradado_sin_nombre_52"/>
    <linearGradient id="Degradado_sin_nombre_52-8" data-name="Degradado sin nombre 52" x1="163.53" y1="22.56" x2="203.78" y2="22.56" xlink:href="#Degradado_sin_nombre_52"/>
    <linearGradient id="Degradado_sin_nombre_52-9" data-name="Degradado sin nombre 52" x1="27.37" y1="23.43" x2="63.33" y2="23.43" xlink:href="#Degradado_sin_nombre_52"/>
    <linearGradient id="Degradado_sin_nombre_52-10" data-name="Degradado sin nombre 52" x1="0" y1="23.35" x2="23.01" y2="23.35" xlink:href="#Degradado_sin_nombre_52"/>
    <linearGradient id="Degradado_sin_nombre_52-11" data-name="Degradado sin nombre 52" x1="6.24" y1="52.79" x2="18.26" y2="52.79" xlink:href="#Degradado_sin_nombre_52"/>
    <linearGradient id="Degradado_sin_nombre_52-12" data-name="Degradado sin nombre 52" x1="32.33" y1="52.68" x2="44.84" y2="52.68" xlink:href="#Degradado_sin_nombre_52"/>
    <linearGradient id="Degradado_sin_nombre_52-13" data-name="Degradado sin nombre 52" x1="45.37" y1="52.72" x2="57.86" y2="52.72" xlink:href="#Degradado_sin_nombre_52"/>
    <linearGradient id="Degradado_sin_nombre_52-14" data-name="Degradado sin nombre 52" x1="19.14" y1="52.75" x2="31.18" y2="52.75" xlink:href="#Degradado_sin_nombre_52"/>
    <linearGradient id="Degradado_sin_nombre_52-15" data-name="Degradado sin nombre 52" x1="22.55" y1="44.55" x2="27.76" y2="44.55" xlink:href="#Degradado_sin_nombre_52"/>
    <linearGradient id="Degradado_sin_nombre_52-16" data-name="Degradado sin nombre 52" x1="65.48" y1="27.5" x2="72.2" y2="27.5" xlink:href="#Degradado_sin_nombre_52"/>
    <linearGradient id="Degradado_sin_nombre_52-17" data-name="Degradado sin nombre 52" x1="67.98" y1="19.76" x2="33.19" y2="31.3" xlink:href="#Degradado_sin_nombre_52"/>
    <linearGradient id="Degradado_sin_nombre_52-18" data-name="Degradado sin nombre 52" x1="65.5" y1="12.29" x2="30.71" y2="23.83" xlink:href="#Degradado_sin_nombre_52"/>
  </defs>
  <g id="Fondo_Logo" data-name="Fondo Logo">
    <g>
      <g>
        <g>
          <path class="cls-2" d="m344.08,40.37c-6.04,0-11.8.03-17.56-.01-2.99-.03-6.02.08-8.96-.35-8.03-1.17-12.78-5.86-13.86-13.83-.83-6.15.06-11.98,4.9-16.55,2.88-2.72,6.4-4.35,10.24-4.47,8.31-.26,16.63-.08,25.23-.08,0,2.05.08,4-.06,5.94-.03.41-.89,1.1-1.36,1.1-7.09-.02-14.17-.16-21.26-.23-4.85-.05-9.06,2.93-10.37,7.44h26.84v6.91h-26.68c1.14,4.12,4.81,6.88,9.07,6.91,7.16.05,14.33.06,21.49-.02,1.76-.02,2.56.4,2.38,2.3-.15,1.57-.03,3.17-.03,4.95Z"/>
          <path class="cls-11" d="m140.27,40.39c-4.83.23-9.46-.43-13.6-3.16-2.99-1.97-5.12-4.68-5.92-8.14-2.85-12.31,1.56-22.92,16.91-24.07,4.3-.32,8.61-.09,12.71,1.55,6.17,2.47,9.5,7.08,9.99,13.64.18,2.45.2,5.01-.28,7.4-1.49,7.52-7.3,12.19-15.45,12.75-1.45.1-2.92.01-4.37.01Zm-.21-6.7c.03.09.06.18.09.26,2.47-.56,5.03-.88,7.39-1.73,4.19-1.51,6.13-4.88,6.17-9.19.04-4.18-1.68-7.52-5.64-9.38-3.68-1.73-7.57-2.04-11.55-1.43-5.93.91-9.31,4.44-9.5,9.93-.21,6.07,2.79,9.86,8.91,11.11,1.35.28,2.75.28,4.13.41Z"/>
          <path class="cls-16" d="m116.08,33.5v6.45c-.92.05-1.77.12-2.61.12-6.79,0-13.59.01-20.38,0-9.72,0-16.2-6.14-16.81-15.88-.74-11.78,6.24-19.21,18.04-19.21,7.15,0,14.3,0,21.66,0v7.24c-.52,0-1.08,0-1.63,0-6.87,0-13.74-.12-20.6.01-7.97.15-12.33,5.83-10.6,13.53,1.02,4.54,5.05,7.68,10.16,7.73,6.72.07,13.44.02,20.16.02.79,0,1.58,0,2.61,0Z"/>
          <path class="cls-7" d="m248.02,12.96c-1.99,3.91-3.85,7.54-5.68,11.17-2.33,4.63-4.76,9.21-6.91,13.92-.91,2-2.07,2.75-4.17,2.48-1.21-.15-2.46-.03-4.03-.03.45-.99.75-1.71,1.1-2.4,4.99-9.91,9.98-19.81,14.97-29.72,1.03-2.04,2.3-3.85,4.84-3.86,2.59,0,4.05,1.72,5.11,3.85,3.9,7.76,7.83,15.51,11.64,23.31.69,1.4,1.14,3.02,1.26,4.57.21,2.58-1.08,4.09-3.68,4.14-6.28.12-12.55.04-19.27.04,1.03-2.14,1.88-4.1,2.93-5.95.22-.39,1.13-.51,1.73-.53,2.7-.05,5.41,0,8.11-.04,1.87-.03,2.54-.9,1.77-2.47-2.89-5.9-5.86-11.75-8.82-17.62-.12-.23-.39-.39-.9-.87Z"/>
          <path class="cls-9" d="m301.69,5.14c.12.24.17.31.18.37q.64,6.68-5.93,6.68h-10.94v28.16h-6.87V12.04h-16.69v-6.9h40.27Z"/>
          <path class="cls-8" d="m237.3,4.98c-.41.94-.67,1.59-.99,2.22-4.83,9.67-9.66,19.33-14.49,29-.2.39-.37.8-.59,1.17-1.06,1.77-2.41,3.12-4.67,3.11-2.26-.01-3.65-1.33-4.61-3.18-3.25-6.29-6.46-12.6-9.68-18.91-2.22-4.34-4.44-8.69-6.85-13.42,2.44,0,4.59-.11,6.72.07.56.05,1.24.88,1.55,1.51,3.87,7.78,7.67,15.59,11.5,23.39.31.64.65,1.26,1.22,2.34.68-1.03,1.18-1.67,1.54-2.38,3.85-7.63,7.71-15.25,11.48-22.92.74-1.5,1.54-2.28,3.3-2.05,1.41.18,2.86.04,4.58.04Z"/>
          <path class="cls-12" d="m349.28,5.1h6.31c.04.84.12,1.68.12,2.52.01,6.72,0,13.44,0,20.16,0,3.73,1.87,5.65,5.66,5.66,8.54.03,17.09,0,25.63.02.71,0,1.43.06,2.26.1v6.81c-.87,0-1.65,0-2.43,0-9.49,0-18.99.13-28.48-.1-2.27-.05-4.76-.92-6.68-2.15-1.31-.84-2.5-2.93-2.54-4.5-.23-9.27-.11-18.55-.1-27.82,0-.2.13-.4.23-.7Z"/>
          <path class="cls-10" d="m163.79,5.04h6.52c0,1.98,0,3.93,0,5.87,0,5.98-.08,11.97.06,17.95.07,3.18,1.85,4.72,5.06,4.73,8.55.03,17.09.01,25.64.01.86,0,1.71,0,2.7,0v6.25c-.6.08-1.15.21-1.71.21-10.08.01-20.16.01-30.24,0-2.48,0-4.93-.38-6.51-2.48-.88-1.16-1.7-2.72-1.72-4.11-.14-9.27-.06-18.55-.04-27.83,0-.13.09-.26.22-.61Z"/>
        </g>
        <g>
          <circle class="cls-18" cx="392.34" cy="2.54" r="2.41"/>
          <text class="cls-17" transform="translate(391.27 4.03)"><tspan x="0" y="0">R</tspan></text>
        </g>
      </g>
      <g>
        <path class="cls-14" d="m48.83,39.98c-9.85,0-17.84-7.8-17.84-17.41s7.99-17.41,17.84-17.41c1.84,0,3.61.27,5.28.78.06.02.09-.07.03-.09-2.25-.89-4.71-1.37-7.29-1.37-10.76,0-19.48,8.49-19.48,18.96s8.72,18.96,19.48,18.96c6.91,0,12.97-3.5,16.43-8.78.18-.27-.21-.56-.41-.3-3.27,4.06-8.34,6.66-14.04,6.66Z"/>
        <path class="cls-6" d="m23.01,30.56c0,1.61-.33,3.12-.98,4.54-.66,1.41-1.64,2.65-2.95,3.71-1.31,1.06-2.96,1.89-4.94,2.5-1.99.61-4.3.91-6.94.91-1.46,0-2.77-.05-3.93-.14-1.16-.09-2.25-.22-3.26-.37v-4.38c1.16.21,2.39.37,3.68.48s2.61.17,3.96.17c1.84,0,3.4-.16,4.71-.49,1.3-.33,2.36-.8,3.19-1.42.82-.62,1.42-1.37,1.8-2.25.37-.88.56-1.87.56-2.98,0-1.01-.22-1.89-.67-2.64-.45-.75-1.08-1.38-1.9-1.88s-1.79-.88-2.92-1.14c-1.13-.25-2.37-.38-3.72-.38h-4.19v-4.02h4.24c1.1,0,2.11-.14,3.02-.44.91-.29,1.69-.71,2.33-1.25.65-.54,1.14-1.21,1.49-2.01.35-.8.52-1.7.52-2.71,0-1.97-.6-3.4-1.8-4.3-1.2-.9-2.96-1.35-5.28-1.35-1.24,0-2.51.12-3.82.37-1.31.24-2.72.61-4.21,1.1v-4.27c.64-.22,1.32-.43,2.04-.6.72-.18,1.44-.33,2.16-.45.72-.12,1.44-.22,2.15-.28.71-.07,1.4-.1,2.05-.1,1.95,0,3.66.21,5.14.63,1.48.42,2.72,1.03,3.71,1.81.99.79,1.74,1.74,2.25,2.87s.76,2.39.76,3.79c0,2.1-.54,3.86-1.62,5.28-1.08,1.42-2.55,2.56-4.42,3.4.96.15,1.9.45,2.82.9s1.76,1.03,2.5,1.73c.74.7,1.34,1.53,1.8,2.49.46.96.69,2.01.69,3.17Z"/>
      </g>
      <g>
        <path class="cls-20" d="m12.65,49.82c-.61,1.21-1.19,2.33-1.75,3.45-.72,1.43-1.47,2.84-2.13,4.3-.28.62-.64.85-1.29.77-.37-.05-.76,0-1.24,0,.14-.31.23-.53.34-.74,1.54-3.06,3.08-6.12,4.62-9.18.32-.63.71-1.19,1.49-1.19.8,0,1.25.53,1.58,1.19,1.2,2.4,2.42,4.79,3.6,7.2.21.43.35.93.39,1.41.07.8-.33,1.26-1.14,1.28-1.94.04-3.88.01-5.95.01.32-.66.58-1.27.9-1.84.07-.12.35-.16.53-.16.83-.02,1.67,0,2.5-.01.58,0,.78-.28.55-.76-.89-1.82-1.81-3.63-2.72-5.44-.04-.07-.12-.12-.28-.27Z"/>
        <path class="cls-4" d="m38.6,58.16c-1.49.07-2.92-.13-4.2-.97-.92-.61-1.58-1.45-1.83-2.51-.88-3.8.48-7.08,5.22-7.43,1.33-.1,2.66-.03,3.92.48,1.9.76,2.93,2.19,3.08,4.21.06.76.06,1.55-.09,2.29-.46,2.32-2.25,3.76-4.77,3.94-.45.03-.9,0-1.35,0Zm-.07-2.07s.02.05.03.08c.76-.17,1.55-.27,2.28-.53,1.29-.47,1.89-1.51,1.91-2.84.01-1.29-.52-2.32-1.74-2.89-1.14-.53-2.34-.63-3.57-.44-1.83.28-2.87,1.37-2.93,3.07-.06,1.87.86,3.04,2.75,3.43.42.09.85.09,1.28.13Z"/>
        <path class="cls-1" d="m47.59,47.23c.23-.07.46-.08.7-.08,3.03,0,6.05,0,9.08,0,.27,0,.28.01.28.33,0,.5,0,1.01,0,1.51,0,.26-.02.28-.24.28-3.04,0-6.08,0-9.12,0-.45,0-.8.18-1.01.67-.32.72.08,1.61.76,1.7.1.01.21.02.32.02,2.19,0,4.38,0,6.58,0,.98,0,1.79.43,2.37,1.37.66,1.08.72,2.24.23,3.45-.04.07-.06.14-.1.21-.36.69-.86,1.17-1.51,1.41-.13.06-.26.07-.39.12-.18.06-.37.06-.56.06-3.05,0-6.1,0-9.15,0-.24,0-.26-.02-.26-.31,0-.49,0-.98,0-1.47,0-.32.01-.33.28-.33,3.03,0,6.06,0,9.09,0,.52,0,.9-.29,1.06-.81.15-.5-.01-1.07-.4-1.36-.06-.04-.12-.09-.17-.13-.17-.09-.35-.11-.53-.11-2.28,0-4.56,0-6.85,0-.07,0-.14.02-.21-.02-.99-.15-1.72-.75-2.16-1.79-.76-1.77-.06-3.86,1.5-4.59.02-.01.04-.01.07-.02.11-.07.25-.04.35-.12Z"/>
        <g>
          <path class="cls-3" d="m19.14,52.75c0-1.74,0-3.47,0-5.21,0-.32.01-.34.29-.34.41,0,.82,0,1.24,0,.13,0,.23.05.33.14,2.72,2.65,5.45,5.29,8.18,7.94.04.03.07.07.11.1.08.08.1.03.1-.06,0-.06,0-.11,0-.17,0-2.54,0-5.07,0-7.61,0-.32.02-.34.28-.34.42,0,.85,0,1.27,0,.21,0,.24.03.24.28,0,.56,0,1.12,0,1.67,0,2.93,0,5.86,0,8.79,0,.33,0,.34-.28.34-.42,0-.84,0-1.25,0-.13,0-.23-.04-.33-.14-2.74-2.66-5.48-5.32-8.22-7.98-.04-.04-.08-.13-.14-.1-.06.03-.03.13-.03.19,0,2.56,0,5.11,0,7.67,0,.34,0,.35-.29.35-.41,0-.82,0-1.24,0-.23,0-.25-.02-.25-.31,0-1.74,0-3.49,0-5.23Z"/>
          <path class="cls-15" d="m27.74,44.43s0,.07,0,.1c.08.43-.11.66-.41.86-.73.49-1.44.43-2.15-.02-.32-.2-.64-.42-.98-.59-.52-.25-1-.17-1.44.23-.05.05-.1.15-.17.09-.06-.04-.03-.14-.03-.21,0-.27,0-.54,0-.81,0-.15.04-.24.15-.32.74-.59,1.45-.54,2.17.06.18.15.38.29.57.43.55.38,1.1.36,1.65,0,.18-.12.35-.25.51-.39.03-.03.06-.08.11-.05.06.03.03.09.03.14,0,.16,0,.32,0,.48Z"/>
        </g>
      </g>
      <path class="cls-5" d="m65.83,28.54s1.55-.86,3.97-3.1c0,0,1.9-1.55,2.41.69,0,0-.34,2.24-6.72,3.97l.34-1.55Z"/>
      <path class="cls-19" d="m66.69,19.92l.34,2.59s3.52-1.76,4.55-4.53c.47-1.26-.02-2.67-1.2-3.33-1.42-.79-4.18-1.23-9.56.27-8.54,2.38-11.51,3.74-12.33,4.16-.24.12-.48.25-.72.37-2.05,1.03-10.6,5.66-17.46,14.44-.53.68-.96,1.43-1.22,2.25-.57,1.78-.53,4.2,5.18,2.22,0,0-7.26,1.49-3.28-4,3.41-4.71,9.23-8.68,10.81-9.71.25-.16.49-.32.73-.48,1.8-1.2,10.72-6.8,22.25-7.88,0,0,8.62-1.03,1.9,3.62Z"/>
      <path class="cls-13" d="m29.45,32.85s-1.38,1.21-3.45.86-2.27-.86-2.27-.86c0,0-1.01-2.41,3.13-6.72,2.17-2.26,3.54-3.77,4.34-4.68,1.01-1.15,2.1-2.24,3.26-3.24,3.17-2.73,9.31-7.46,16.18-9.83,10-3.45,12.41-3.45,12.41-3.45,0,0,5.34-.52,5,2.07-.2,1.48-.96,2.17-1.57,2.49-.36.18-.75.27-1.15.27-1.91.01-12.26.29-21.76,4.66-7.32,3.36-10.63,6.31-11.97,7.78-.84.93-1.7,1.82-2.58,2.71-1.9,1.91-4.58,5.01-4.24,6.92.52,2.93,4.65,1.03,4.65,1.03Z"/>
    </g>
  </g>
</svg>